PathFileType  4	(X/Y/Z) C:\Users\antoi\Documents\MyRepositories\mobilecap\ResultsAnalysis
DataRate	CameraRate	NumFrames	NumMarkers	Units	OrigDataRate	OrigDataStartFrame	OrigNumFrames
100.0	100.0	6	51	mm	100.0	103	137
Frame#	Time	r_knee			r_shank_antsup			r_ankle			r_calc			r_5meta			r_toe			L_knee			L_shank_antsup			L_ankle			L_calc			L_5meta			L_toe			r_sh2			r_sh3			r_sh4			L_sh2			L_sh3			r_thigh1			r_thigh2			r_thigh3			r_thigh4			r_thigh5			L_thigh1			L_thigh2			L_thigh3			L_thigh4			r.ASIS			r.PSIS			L.ASIS			L.PSIS			C7			R_Shoulder			L_Shoulder			R_Sternum			L_Sternum			R_humerus			R_elbow_med			R_elbow_lat			R_forearm			R_wrist_radius			R_wrist_ulna			L_humerus			L_elbow_med			L_elbow_lat			L_forearm			L_wrist_radius			L_wrist_ulna			R_HJC			L_HJC			R_HJC_reg			L_HJC_reg			
		X1	Y1	Z1	X2	Y2	Z2	X3	Y3	Z3	X4	Y4	Z4	X5	Y5	Z5	X6	Y6	Z6	X7	Y7	Z7	X8	Y8	Z8	X9	Y9	Z9	X10	Y10	Z10	X11	Y11	Z11	X12	Y12	Z12	X13	Y13	Z13	X14	Y14	Z14	X15	Y15	Z15	X16	Y16	Z16	X17	Y17	Z17	X18	Y18	Z18	X19	Y19	Z19	X20	Y20	Z20	X21	Y21	Z21	X22	Y22	Z22	X23	Y23	Z23	X24	Y24	Z24	X25	Y25	Z25	X26	Y26	Z26	X27	Y27	Z27	X28	Y28	Z28	X29	Y29	Z29	X30	Y30	Z30	X31	Y31	Z31	X32	Y32	Z32	X33	Y33	Z33	X34	Y34	Z34	X35	Y35	Z35	X36	Y36	Z36	X37	Y37	Z37	X38	Y38	Z38	X39	Y39	Z39	X40	Y40	Z40	X41	Y41	Z41	X42	Y42	Z42	X43	Y43	Z43	X44	Y44	Z44	X45	Y45	Z45	X46	Y46	Z46	X47	Y47	Z47	X48	Y48	Z48	X49	Y49	Z49	X50	Y50	Z50	X51	Y51	Z51	

103	1.02000000	1233.59075	560.99195	-128.65998	1301.06357	487.23211	-133.15224	1354.56419	149.28328	-159.02003	1296.94624	78.64378	-217.14083	1487.66332	100.76296	-115.49168	1536.96097	154.13946	-170.45987	966.97147	543.40703	-456.31407	949.43750	451.48742	-475.26335	873.53264	126.78138	-400.64861	796.45174	76.05692	-341.32732	976.83456	49.15482	-447.70593	1043.97930	71.91389	-391.32724	1319.05597	378.34195	-110.43431	1232.07239	481.34165	-100.82664	1236.46154	365.13057	-99.05176	863.36573	471.91689	-455.40765	853.04206	351.01182	-445.80158	1176.92425	883.94424	-120.32770	1219.49623	782.15095	-119.63741	1175.87660	739.01877	-88.79656	1074.82590	840.30122	-110.67957	1123.90472	734.20700	-112.14975	1103.78503	824.93516	-478.06908	1086.96971	686.02537	-460.56454	994.26145	833.67796	-492.66448	974.91065	698.36150	-482.03308	1137.49134	1078.27105	-171.03160	959.20532	1077.86404	-239.46990	1144.99354	1066.07178	-424.27772	959.59147	1082.34816	-349.48516	1096.68721	1612.52720	-391.25061	1138.52088	1569.54861	-205.26729	1138.72119	1502.97350	-540.60338	1191.43399	1508.10372	-336.37488	1191.11337	1494.24879	-390.90422	1089.88477	1427.30954	-115.57819	955.82537	1255.73717	-148.87017	962.05762	1282.17488	-68.42369	971.97082	1116.67443	-8.86029	992.59966	1021.83887	3.27650	949.47836	1038.76489	16.42145	1134.81365	1378.84121	-616.85134	1128.82530	1133.47142	-569.95897	1142.90982	1154.88226	-650.77465	1207.49528	1118.40191	-672.29228	1338.55309	995.76205	-682.39420	1307.19471	970.24289	-692.50788	1065.56517	956.95511	-187.71267	1062.12200	956.24141	-394.64379	1088.89866	980.60703	-210.49325	1089.48518	987.42544	-377.76186	
104	1.03000000	1243.95868	557.12263	-130.79373	1312.79423	485.44075	-134.97243	1378.24316	148.51706	-158.82149	1322.87241	75.65916	-215.42554	1513.20631	105.25322	-115.32202	1560.23391	160.06618	-170.96058	975.34419	541.70367	-457.10179	956.36502	449.80537	-476.03203	874.41652	126.96742	-400.44640	796.62718	76.20254	-341.19228	976.87397	49.20719	-447.68086	1044.20687	71.57772	-391.27447	1334.24792	377.29886	-111.35417	1244.04797	477.68221	-102.36835	1252.04734	361.61004	-99.61285	870.53201	471.73243	-456.71978	858.14628	351.06323	-446.75743	1188.77541	879.57538	-122.49218	1230.37450	777.35691	-122.14847	1186.58836	734.69551	-90.79842	1086.32282	836.95992	-112.57249	1134.49577	730.39690	-114.20491	1114.86592	822.24658	-478.05169	1096.66572	683.54538	-460.02496	1005.51710	831.72724	-494.05386	985.00238	696.62201	-483.10615	1149.36695	1074.83394	-171.24783	970.88802	1073.65022	-240.06924	1157.08394	1063.39284	-424.73493	971.38514	1078.68867	-350.06083	1107.10856	1610.17066	-388.17189	1148.46432	1565.36959	-202.40222	1150.64151	1502.06857	-538.24884	1202.03700	1505.41330	-333.77795	1202.03617	1492.11025	-388.35255	1099.78652	1422.13383	-114.16033	966.29392	1250.43760	-149.09385	971.82188	1276.59701	-68.52900	979.65922	1110.95620	-9.52832	999.25856	1016.09305	2.35137	956.16685	1033.16683	15.25516	1148.92772	1379.23820	-615.99896	1146.21156	1133.12044	-573.57310	1161.16734	1156.22055	-653.75658	1226.60469	1121.15763	-674.99111	1359.47283	1000.53102	-685.30397	1328.56856	974.77697	-696.46855	1077.88296	953.19012	-188.53875	1074.66274	953.11913	-395.47269	1101.30106	976.71791	-211.29310	1102.05716	984.38713	-378.66397	
105	1.04000000	1254.95624	553.62915	-132.55055	1324.67868	483.50439	-136.49307	1399.18666	147.36986	-158.99949	1345.93497	72.65729	-214.00316	1535.73046	109.02541	-115.50762	1580.64651	165.02252	-171.83517	984.25675	540.10736	-458.07167	963.77107	448.23509	-477.02736	875.42084	127.30764	-400.60377	796.82972	76.54811	-341.16022	976.93177	49.22318	-447.69884	1044.51567	71.22762	-391.28058	1348.69942	375.99266	-112.20310	1256.12183	474.34772	-103.70893	1266.83549	358.47008	-100.19688	878.26590	471.76927	-458.18978	863.62769	351.39850	-447.90259	1200.96369	875.58073	-124.59648	1241.73920	773.04016	-124.56995	1197.89309	730.82282	-92.66531	1098.19984	833.80194	-114.18723	1145.66736	726.86588	-115.97034	1126.22433	819.77415	-478.14903	1106.87429	681.20891	-459.83977	1017.09670	829.86889	-495.43734	995.56517	694.95611	-484.30740	1161.27280	1071.47865	-171.20872	982.62348	1069.46093	-240.42151	1169.29903	1060.91518	-424.99396	983.26065	1075.07844	-350.37410	1117.53028	1607.81948	-385.18428	1158.50865	1561.23578	-199.61862	1162.61655	1501.02093	-535.89370	1212.66742	1502.75580	-331.24458	1212.98852	1489.95368	-385.85237	1109.90629	1416.99618	-112.77026	976.96623	1245.11344	-149.15947	981.88027	1271.00518	-68.50149	987.77278	1105.22953	-10.15346	1006.42309	1010.34319	1.41685	963.36611	1027.54733	14.13637	1163.04642	1379.46553	-614.93532	1163.37257	1132.75867	-576.87328	1179.07912	1157.50482	-656.39767	1245.30941	1123.77268	-677.35850	1379.79708	1005.15935	-687.85507	1349.41997	979.11350	-700.04209	1090.33139	949.48121	-189.17265	1087.35465	950.13889	-396.10747	1113.79322	972.91716	-211.88782	1114.76394	981.47836	-379.39213	
106	1.05000000	1266.74739	550.61253	-133.93556	1336.87488	481.41918	-137.72739	1417.18923	145.75366	-159.54849	1365.74681	69.63174	-213.11055	1554.95787	111.53759	-116.07009	1598.12227	168.47620	-173.00007	993.63048	538.62381	-459.14415	971.63830	446.77797	-478.14728	876.57919	127.84924	-401.05438	797.08746	77.19161	-341.23743	977.02305	49.19617	-447.75314	1044.87973	70.84553	-391.34231	1362.54435	374.35798	-113.01460	1268.47839	471.37657	-104.79930	1280.94027	355.68316	-100.78339	886.53071	472.00283	-459.77254	869.48734	351.98885	-449.19017	1213.48361	872.13150	-126.60175	1253.69152	769.41002	-126.87301	1209.97764	727.55528	-94.32592	1110.52218	830.90954	-115.41717	1157.54384	723.74891	-117.33311	1137.77518	817.50364	-478.35144	1117.53732	678.99849	-460.06066	1028.91443	828.12355	-496.74505	1006.48356	693.36987	-485.55402	1173.19309	1068.29607	-170.96335	994.42128	1065.42165	-240.56289	1181.62353	1058.66961	-425.07475	995.24534	1071.61724	-350.46469	1127.97299	1605.54477	-382.31729	1168.63641	1557.28046	-196.93089	1174.66048	1499.90195	-533.54326	1223.35026	1500.22339	-328.76859	1223.99618	1487.86503	-383.40427	1120.24819	1412.04139	-111.41580	987.87109	1239.90383	-149.10621	992.27652	1265.51902	-68.36555	996.37279	1099.61351	-10.74951	1014.12389	1004.67473	0.48293	971.12911	1022.02592	13.06445	1177.17857	1379.58400	-613.65779	1180.25974	1132.42686	-579.83108	1196.60607	1158.76027	-658.69782	1263.55825	1126.25392	-679.38238	1399.49918	1009.62437	-690.04638	1369.69673	983.26711	-703.21868	1102.87495	945.93580	-189.62186	1100.16727	947.36131	-396.55600	1126.32768	969.30963	-212.30591	1127.58538	978.76443	-379.95925	
107	1.06000000	1279.37321	548.12594	-135.01489	1349.43846	479.20827	-138.75755	1432.24943	143.67547	-160.44286	1382.03790	66.77337	-212.88849	1570.80403	112.27618	-117.01247	1612.78519	169.87289	-174.37601	1003.41416	537.24398	-460.22627	979.95513	445.42324	-479.27856	877.91794	128.64244	-401.72079	797.43696	78.25239	-341.43528	977.16794	49.12075	-447.84025	1045.27672	70.41278	-391.45856	1375.88471	372.39347	-113.84784	1281.20503	468.79732	-105.64940	1294.45969	353.23184	-101.35496	895.29516	472.40679	-461.39003	875.72383	352.79617	-450.54879	1226.32446	869.37275	-128.45127	1266.29634	766.62753	-129.01560	1222.94849	725.00401	-95.73307	1123.32960	828.36306	-116.18337	1170.19731	721.16666	-118.23184	1149.45391	815.41648	-478.62043	1128.59701	676.90631	-460.69283	1040.87253	826.50187	-497.89068	1017.64577	691.85922	-486.74481	1185.14399	1065.39208	-170.55800	1006.30954	1061.64780	-240.55576	1194.05911	1056.64764	-424.99362	1007.37394	1068.38167	-350.39745	1138.46370	1603.41253	-379.58938	1178.82990	1553.63314	-194.34277	1186.77958	1498.79033	-531.19922	1234.10915	1497.89577	-326.33831	1235.08404	1485.92391	-380.99947	1130.80399	1407.41400	-110.09429	999.05080	1234.94825	-148.97722	1003.04548	1260.26728	-68.14981	1005.52220	1094.23798	-11.32704	1022.39525	999.18412	-0.43651	979.51289	1016.73079	12.03923	1191.30526	1379.66352	-612.17948	1196.82420	1132.17183	-582.41213	1213.71117	1160.01246	-660.64920	1281.30324	1128.61977	-681.05146	1418.55877	1013.88759	-691.88230	1389.32756	987.25466	-705.98940	1115.49588	942.66852	-189.88040	1113.09579	944.81249	-396.81322	1138.89679	965.99212	-212.55560	1140.52405	976.28241	-380.36011	
108	1.07000000	1292.71860	546.15784	-135.89464	1362.30112	476.91852	-139.71378	1444.58826	141.24009	-161.62326	1394.76257	64.39999	-213.33045	1583.44108	110.90913	-118.31093	1624.96417	168.76810	-175.92569	1013.58687	535.96199	-461.23346	988.71429	444.16878	-480.32341	879.45306	129.74928	-402.53352	797.91989	79.85483	-341.76650	977.39045	48.99603	-447.96118	1045.69952	69.91497	-391.63296	1388.75944	370.15447	-114.77909	1294.25094	466.61540	-106.33898	1307.43355	351.10063	-101.92600	904.54114	472.97743	-462.94939	882.33691	353.80406	-451.89878	1239.47592	867.38021	-130.06260	1279.55630	764.75373	-130.93903	1236.77972	723.19551	-96.88988	1136.62213	826.22665	-116.46095	1183.60989	719.18786	-118.69211	1161.22545	813.50840	-478.90478	1140.00360	674.94668	-461.68696	1052.88124	825.01854	-498.78557	1028.96770	690.42397	-487.77645	1197.17589	1062.87546	-170.02548	1018.33772	1058.23446	-240.46635	1206.62865	1054.81926	-424.75727	1019.68479	1065.42280	-350.23962	1149.03601	1601.48476	-377.00340	1189.08036	1550.40728	-191.84885	1198.97094	1497.76525	-528.86189	1244.96195	1495.83881	-323.94300	1246.27047	1484.20113	-378.62381	1141.55652	1403.24362	-108.79235	1010.55072	1230.37142	-148.81217	1014.19973	1255.37571	-67.88320	1015.27118	1089.22887	-11.89096	1031.27581	993.97196	-1.32536	988.57259	1011.78550	11.06236	1205.37938	1379.77258	-610.53093	1213.01782	1132.03877	-584.58312	1230.35511	1161.28387	-662.23768	1298.50057	1130.89489	-682.35690	1436.95388	1017.91367	-693.36918	1408.24364	991.08452	-708.34702	1128.20533	939.78830	-189.92733	1126.16471	942.49388	-396.85946	1151.54173	963.04800	-212.61921	1153.60425	974.04772	-380.56750	
